<svg xmlns="http://www.w3.org/2000/svg" width="120.538" height="28" viewBox="0 0 120.538 28"><defs><style>.a{fill:#0055fb;}</style></defs><path class="a" d="M12.015,26.015A1.985,1.985,0,1,1,14,28,1.985,1.985,0,0,1,12.015,26.015Zm6.708,0a1.737,1.737,0,1,1,1.737,1.737A1.737,1.737,0,0,1,18.723,26.015Zm-12.92,0A1.737,1.737,0,1,1,7.54,27.752,1.737,1.737,0,0,1,5.8,26.015Zm18.971,0A1.489,1.489,0,1,1,26.263,27.5,1.489,1.489,0,0,1,24.774,26.015Zm-24.526,0A1.489,1.489,0,1,1,1.737,27.5,1.489,1.489,0,0,1,.248,26.015Zm11.518-5.67A2.233,2.233,0,1,1,14,22.578,2.234,2.234,0,0,1,11.766,20.345Zm6.708-.41A1.985,1.985,0,1,1,20.46,21.92,1.985,1.985,0,0,1,18.475,19.935Zm-12.92,0A1.985,1.985,0,1,1,7.54,21.92,1.985,1.985,0,0,1,5.555,19.935Zm19.219,0a1.489,1.489,0,1,1,1.489,1.489A1.489,1.489,0,0,1,24.774,19.935Zm-24.526,0a1.489,1.489,0,1,1,1.489,1.489A1.489,1.489,0,0,1,.248,19.935Zm11.518-5.474A2.233,2.233,0,1,1,14,16.695,2.234,2.234,0,0,1,11.766,14.461Zm6.708-.854a1.985,1.985,0,1,1,1.985,1.985A1.985,1.985,0,0,1,18.475,13.607Zm-12.92,0A1.985,1.985,0,1,1,7.54,15.592,1.985,1.985,0,0,1,5.555,13.607Zm18.971,0a1.737,1.737,0,1,1,1.737,1.737A1.737,1.737,0,0,1,24.526,13.607ZM0,13.607a1.737,1.737,0,1,1,1.737,1.737A1.737,1.737,0,0,1,0,13.607ZM11.766,8.578A2.233,2.233,0,1,1,14,10.812,2.234,2.234,0,0,1,11.766,8.578Zm6.461-1.3A2.233,2.233,0,1,1,20.46,9.512,2.233,2.233,0,0,1,18.227,7.279Zm-12.92,0A2.233,2.233,0,1,1,7.54,9.512,2.233,2.233,0,0,1,5.307,7.279Zm6.211-4.8A2.482,2.482,0,1,1,14,4.963,2.482,2.482,0,0,1,11.518,2.482Z"/><path d="M6.793.281a6.259,6.259,0,0,1-4.308-1.8A6.4,6.4,0,0,1,.52-6.487a6.993,6.993,0,0,1,.989-3.774,6.052,6.052,0,0,1,2.382-2.291,6.469,6.469,0,0,1,2.954-.7,5.1,5.1,0,0,1,3.879,1.536v-1.275H14.29V.021H10.724V-1.437A4.889,4.889,0,0,1,6.793.281ZM7.5-3A3.107,3.107,0,0,0,9.878-4.027a3.532,3.532,0,0,0,.95-2.486,3.486,3.486,0,0,0-.95-2.473A3.126,3.126,0,0,0,7.5-10a3.4,3.4,0,0,0-2.486.989,3.364,3.364,0,0,0-1,2.5A3.407,3.407,0,0,0,5.01-4,3.376,3.376,0,0,0,7.5-3ZM23.739.281a4.946,4.946,0,0,1-3.957-1.536V6.008H16.216v-19h3.566v1.484a4.782,4.782,0,0,1,3.9-1.744,6.24,6.24,0,0,1,2.239.416,6.653,6.653,0,0,1,2.017,1.223A5.73,5.73,0,0,1,29.427-9.48a7.639,7.639,0,0,1,.56,2.993,6.419,6.419,0,0,1-1.952,4.972A6.214,6.214,0,0,1,23.739.281ZM23.01-3A3.376,3.376,0,0,0,25.5-4a3.407,3.407,0,0,0,1-2.512,3.364,3.364,0,0,0-1-2.5A3.4,3.4,0,0,0,23.01-10a3.126,3.126,0,0,0-2.382,1.015,3.486,3.486,0,0,0-.95,2.473,3.532,3.532,0,0,0,.95,2.486A3.107,3.107,0,0,0,23.01-3Zm7.236-6.794v-3.2h2.213V-16.04l3.566-1.952v5h2.447v3.2H36.025v4.139a2.94,2.94,0,0,0,.416,1.939,3.257,3.257,0,0,0,2.03.4V.021h-.521q-3.1,0-4.3-1.236t-1.2-4.412V-9.792ZM45.058.281A4.687,4.687,0,0,1,41.44-1.124a5.567,5.567,0,0,1-1.3-3.931v-7.939h3.618v7.471a3.057,3.057,0,0,0,.612,2.043,2.216,2.216,0,0,0,1.783.716,2.269,2.269,0,0,0,1.783-.781,3.45,3.45,0,0,0,.69-2.343v-7.106H52.19V.021H48.65V-1.411A4.463,4.463,0,0,1,45.058.281Zm9.059-.26V-12.994h3.54v1.458a4.345,4.345,0,0,1,3.592-1.718,4.687,4.687,0,0,1,3.618,1.406,5.567,5.567,0,0,1,1.3,3.931V.021H62.55V-7.45a3.057,3.057,0,0,0-.612-2.043,2.216,2.216,0,0,0-1.783-.716,2.269,2.269,0,0,0-1.783.781,3.45,3.45,0,0,0-.69,2.343V.021ZM79.08-1.7A6.438,6.438,0,0,1,74.316.281,6.481,6.481,0,0,1,69.54-1.7a6.545,6.545,0,0,1-1.965-4.79,6.545,6.545,0,0,1,1.965-4.79,6.481,6.481,0,0,1,4.777-1.978,6.481,6.481,0,0,1,4.777,1.978,6.546,6.546,0,0,1,1.965,4.79A6.524,6.524,0,0,1,79.08-1.7ZM74.316-3.1a3.1,3.1,0,0,0,2.317-1A3.32,3.32,0,0,0,77.6-6.487a3.32,3.32,0,0,0-.963-2.382,3.1,3.1,0,0,0-2.317-1A3.064,3.064,0,0,0,72-8.881a3.356,3.356,0,0,0-.937,2.395A3.356,3.356,0,0,0,72-4.092,3.064,3.064,0,0,0,74.316-3.1Z" transform="translate(39.48 21.992)"/></svg>